<svg width="141" height="23" viewBox="0 0 141 23" fill="none" xmlns="http://www.w3.org/2000/svg">
<path d="M16.043 1.19922L16.5703 5.78125C14.4922 4.71875 12.5273 4.1875 10.6758 4.1875C9.48828 4.1875 8.63281 4.57812 8.10938 5.35938C7.5625 6.15625 7.08594 7.49219 6.67969 9.36719C9.15625 8.24219 11.3828 7.67969 13.3594 7.67969C14.3984 7.67969 15.3672 7.86328 16.2656 8.23047C17.1562 8.58984 17.7852 9.13281 18.1523 9.85938C18.5195 10.5938 18.7031 11.2969 18.7031 11.9688C18.7031 12.8516 18.5391 13.8164 18.2109 14.8633C17.8828 15.9102 17.2383 17.4219 16.2773 19.3984L13.1133 22.2695C12.1523 22.2539 11.1875 22.0898 10.2188 21.7773C9.24219 21.4648 8.05469 20.9023 6.65625 20.0898L6.72656 16.7148L6.89062 16.6562C9.64844 18.4297 11.9922 19.3164 13.9219 19.3164C14.1016 19.3164 14.3711 19.3047 14.7305 19.2812C15.168 18.1562 15.3867 17.125 15.3867 16.1875C15.3867 14.8203 14.918 13.6758 13.9805 12.7539C13.0352 11.832 11.5859 11.3711 9.63281 11.3711C8.52344 11.3711 7.34375 11.5508 6.09375 11.9102C5.69531 13.4414 5.10938 15.0703 4.33594 16.7969C3.75 16.9766 3.32031 17.0664 3.04688 17.0664C2.47656 17.0664 1.70312 16.8789 0.726562 16.5039L0.269531 15.0039C1.49609 13.3633 2.40234 12.2969 2.98828 11.8047C3.58203 11.3047 4.30078 10.7734 5.14453 10.2109C5.45703 7.74219 5.87891 5.79297 6.41016 4.36328C6.94141 2.94141 7.58984 1.94531 8.35547 1.375C9.11328 0.804688 10.1602 0.519531 11.4961 0.519531C13.0977 0.519531 14.6133 0.746094 16.043 1.19922Z" fill="#1D2939"/>
<path d="M23.5195 8.44141L23.2148 11.3008C23.8945 11.3008 24.625 11.2773 25.4062 11.2305C25.4219 10.7148 25.4297 10.4688 25.4297 10.4922C25.4297 9.82812 25.2539 9.32812 24.9023 8.99219C24.543 8.64844 24.082 8.46484 23.5195 8.44141ZM19.9805 8.32422L22.6172 6.08594L25.7695 6.32031C26.7852 6.40625 27.5039 6.66016 27.9258 7.08203C28.3633 7.51953 28.582 7.99609 28.582 8.51172C28.582 8.73828 28.5508 9.03125 28.4883 9.39062C28.4023 9.8125 28.3125 10.4414 28.2188 11.2773C27.1484 11.832 26.3359 12.1562 25.7812 12.25C25.2188 12.3438 24.6797 12.3906 24.1641 12.3906C23.9688 12.3906 23.7266 12.3711 23.4375 12.332C24.2031 13.2852 24.9492 13.7617 25.6758 13.7617C26.5352 13.7617 27.3086 13.4375 27.9961 12.7891H28.0898C27.3086 15.2266 25.8633 16.4453 23.7539 16.4453C22.6602 16.4453 21.8672 16.293 21.375 15.9883C20.8828 15.6836 20.5078 15.2422 20.25 14.6641C19.9844 14.1016 19.8516 13.0352 19.8516 11.4648L19.9102 9.46094L19.9805 8.32422Z" fill="#1D2939"/>
<path d="M33.2578 8.94531L33.5156 13.5508C33.9453 13.0742 34.3711 12.5391 34.793 11.9453C35.2148 11.3438 35.5742 10.7812 35.8711 10.2578C35.4414 9.64062 34.5703 9.20312 33.2578 8.94531ZM33.3047 6.12109C33.4219 6.15234 34.1289 6.28906 35.4258 6.53125C36.5977 6.74219 37.3711 6.90625 37.7461 7.02344C38.1133 7.15625 38.4609 7.36719 38.7891 7.65625C39.1172 7.94531 39.3633 8.35156 39.5273 8.875C39.6914 9.39062 39.7734 10.0898 39.7734 10.9727L39.7148 14.418C39.7148 14.8242 39.7539 15.3008 39.832 15.8477C39.1055 15.9648 37.7734 16.3008 35.8359 16.8555C35.9766 15.7852 36.0469 14.3125 36.0469 12.4375C35.9141 12.6562 35.5273 13.1172 34.8867 13.8203C34.2461 14.5234 33.332 15.4844 32.1445 16.7031C31.2305 16.4609 30.5273 16.2266 30.0352 16C30.0039 15.7031 29.9414 15.2422 29.8477 14.6172C29.7148 13.6406 29.6484 12.7578 29.6484 11.9688C29.6484 10.8281 29.8867 9.86719 30.3633 9.08594C30.8242 8.3125 31.8047 7.32422 33.3047 6.12109Z" fill="#1D2939"/>
<path d="M42.3281 1.9375L44.625 1.35156L46.3594 0.882812L45.8672 9.53125L45.6914 12.9297C46.2695 13.3438 46.9219 13.7617 47.6484 14.1836V14.2656C46.7188 15.1328 45.9375 15.9883 45.3047 16.832C44.2266 16.6055 43.4219 16.1406 42.8906 15.4375C42.3594 14.7266 42.0938 13.7734 42.0938 12.5781C42.0938 12.1016 42.1172 11.3203 42.1641 10.2344C42.2109 9.1875 42.2656 6.42188 42.3281 1.9375Z" fill="#1D2939"/>
<path d="M49.793 5.96875L49.7812 5.01953C49.875 5.00391 50.2461 4.96484 50.8945 4.90234C51.9961 4.78516 52.8164 4.6875 53.3555 4.60938C53.3633 4.73438 53.3672 4.86719 53.3672 5.00781C53.3672 5.25781 53.3398 5.67188 53.2852 6.25C53.5352 6.27344 54.0312 6.28516 54.7734 6.28516C55.2812 6.28516 55.6211 6.27344 55.793 6.25C55.582 7.51562 55.4453 8.26172 55.3828 8.48828C54.8594 8.56641 54.1367 8.625 53.2148 8.66406C53.1602 9.82031 53.1328 10.6094 53.1328 11.0312C53.1328 11.7109 53.293 12.2539 53.6133 12.6602C53.9258 13.0586 54.4688 13.3711 55.2422 13.5977L53.2148 16.668C50.6602 15.9648 49.3828 14.6445 49.3828 12.707C49.3828 12.3867 49.4375 11.7695 49.5469 10.8555C49.6562 9.91016 49.7188 9.27344 49.7344 8.94531C49.375 8.95312 48.9766 8.99609 48.5391 9.07422L49.7812 6.94141V6.70703L49.793 5.96875Z" fill="#1D2939"/>
<path d="M57 2.00781L60.9609 0.765625L60.8438 5.21875V8.10156L62.7305 6.14453H62.8711C64.4648 6.63672 65.5156 7.15625 66.0234 7.70312C66.5312 8.25781 66.7852 9.21094 66.7852 10.5625C66.7852 11.0391 66.7109 11.8672 66.5625 13.0469C66.4766 13.6719 66.4062 14.5586 66.3516 15.707C65.2109 16.6523 63.9375 17.5508 62.5312 18.4023C62.875 15.6211 63.0742 13.8359 63.1289 13.0469L62.6953 10.2695C62.6562 10.0977 62.4297 9.41406 62.0156 8.21875C61.4766 8.92969 61.0859 9.41016 60.8438 9.66016V12.625C60.8438 12.6641 60.8359 12.9414 60.8203 13.457C60.7969 13.9336 60.7852 14.3203 60.7852 14.6172C60.7852 14.8594 60.8047 15.3203 60.8438 16C60.0078 16.0312 58.6094 16.1914 56.6484 16.4805C56.7656 15.5273 56.8477 14.2734 56.8945 12.7188C56.9336 11.1562 56.9688 7.58594 57 2.00781Z" fill="#1D2939"/>
<path d="M94.2188 0.765625L94.9219 3.35547C94.75 4.81641 94.293 6.82031 93.5508 9.36719C92.9727 8.00781 92.3672 6.76172 91.7344 5.62891C90.1875 5.00391 88.668 4.69141 87.1758 4.69141C84.7383 4.69141 82.8359 5.41016 81.4688 6.84766C80.0938 8.29297 79.4062 9.98438 79.4062 11.9219C79.4062 12.9844 79.6953 13.8984 80.2734 14.6641C80.8438 15.4219 81.9375 16.125 83.5547 16.7734C85.1797 17.4219 87.2109 17.9102 89.6484 18.2383C90.4609 18.3555 91.293 18.4492 92.1445 18.5195C92.9961 18.5898 93.9297 18.6445 94.9453 18.6836C95.9609 18.7227 96.9102 18.7422 97.793 18.7422L95.7305 21.4492C92.6836 22.0195 89.8086 22.3047 87.1055 22.3047C83.5352 22.3047 80.9258 21.6211 79.2773 20.2539C77.6133 18.8945 76.7812 17.1289 76.7812 14.957C76.7812 12.5508 77.4727 10.1836 78.8555 7.85547C80.2227 5.52734 82.0977 3.71875 84.4805 2.42969C86.8633 1.14062 89.25 0.496094 91.6406 0.496094C92.4375 0.496094 93.2969 0.585938 94.2188 0.765625Z" fill="#1D2939"/>
<path d="M98.25 1.9375L100.547 1.35156L102.281 0.882812L101.789 9.53125L101.613 12.9297C102.191 13.3438 102.844 13.7617 103.57 14.1836V14.2656C102.641 15.1328 101.859 15.9883 101.227 16.832C100.148 16.6055 99.3438 16.1406 98.8125 15.4375C98.2812 14.7266 98.0156 13.7734 98.0156 12.5781C98.0156 12.1016 98.0391 11.3203 98.0859 10.2344C98.1328 9.1875 98.1875 6.42188 98.25 1.9375Z" fill="#1D2939"/>
<path d="M104.203 9.41406L104.52 7.94922C106.09 7.69141 107.891 7.08203 109.922 6.12109V8.18359L109.887 9.0625C109.887 9.17969 109.891 9.28516 109.898 9.37891C109.906 9.63672 109.91 9.99219 109.91 10.4453C109.91 10.6484 109.914 10.8125 109.922 10.9375L110.004 13C110.02 13.4453 110.078 14.4453 110.18 16C108.57 16.2812 107.172 16.4922 105.984 16.6328C106.094 15.6484 106.148 14.1836 106.148 12.2383L106.102 9.29688C105.773 9.42969 105.422 9.49609 105.047 9.49609C104.766 9.49609 104.484 9.46875 104.203 9.41406ZM107.672 0.777344C108.258 0.777344 108.766 0.980469 109.195 1.38672C109.617 1.79297 109.828 2.30859 109.828 2.93359C109.828 3.51953 109.617 4.02344 109.195 4.44531C108.766 4.86719 108.258 5.07812 107.672 5.07812C107.086 5.07812 106.582 4.86719 106.16 4.44531C105.738 4.03125 105.527 3.52734 105.527 2.93359C105.527 2.33984 105.738 1.83203 106.16 1.41016C106.574 0.988281 107.078 0.777344 107.672 0.777344Z" fill="#1D2939"/>
<path d="M115.137 6.4375L116.262 6.09766V7.63281C116.48 7.5 116.871 7.27344 117.434 6.95312C117.621 6.85156 117.805 6.74219 117.984 6.625L118.98 6.02734C119.707 6.12891 120.262 6.25391 120.645 6.40234C121.012 6.55078 121.316 6.77344 121.559 7.07031C121.793 7.35938 121.953 7.65234 122.039 7.94922C122.117 8.21484 122.156 8.65625 122.156 9.27344C122.156 10.0078 122.086 10.875 121.945 11.875C121.797 12.9375 121.715 13.8516 121.699 14.6172L119.531 16L119.203 16.2227C118.578 16.6523 118.066 16.9453 117.668 17.1016C118.121 14.9375 118.348 13.2422 118.348 12.0156C118.348 10.5391 118.023 9.24219 117.375 8.125C117.352 8.15625 117.211 8.29688 116.953 8.54688L116.742 8.78125L116.262 9.26172L116.32 16C115.047 16.0391 113.723 16.2266 112.348 16.5625C112.348 16.1562 112.352 15.8867 112.359 15.7539C112.375 15.2695 112.383 14.9805 112.383 14.8867V14.6172C112.359 14.2891 112.348 14.0586 112.348 13.9258V11.1602C112.348 9.76172 112.324 8.50781 112.277 7.39844C112.379 7.36719 112.496 7.33203 112.629 7.29297C112.762 7.24609 112.91 7.19531 113.074 7.14062C113.246 7.08594 113.426 7.02344 113.613 6.95312L115.137 6.4375Z" fill="#1D2939"/>
<path d="M123.211 9.41406L123.527 7.94922C125.098 7.69141 126.898 7.08203 128.93 6.12109V8.18359L128.895 9.0625C128.895 9.17969 128.898 9.28516 128.906 9.37891C128.914 9.63672 128.918 9.99219 128.918 10.4453C128.918 10.6484 128.922 10.8125 128.93 10.9375L129.012 13C129.027 13.4453 129.086 14.4453 129.188 16C127.578 16.2812 126.18 16.4922 124.992 16.6328C125.102 15.6484 125.156 14.1836 125.156 12.2383L125.109 9.29688C124.781 9.42969 124.43 9.49609 124.055 9.49609C123.773 9.49609 123.492 9.46875 123.211 9.41406ZM126.68 0.777344C127.266 0.777344 127.773 0.980469 128.203 1.38672C128.625 1.79297 128.836 2.30859 128.836 2.93359C128.836 3.51953 128.625 4.02344 128.203 4.44531C127.773 4.86719 127.266 5.07812 126.68 5.07812C126.094 5.07812 125.59 4.86719 125.168 4.44531C124.746 4.03125 124.535 3.52734 124.535 2.93359C124.535 2.33984 124.746 1.83203 125.168 1.41016C125.582 0.988281 126.086 0.777344 126.68 0.777344Z" fill="#1D2939"/>
<path d="M134.297 5.96875C135.875 6.00781 137.004 6.10938 137.684 6.27344C138.41 6.45312 139.012 6.83203 139.488 7.41016C139.965 8.00391 140.203 8.75391 140.203 9.66016C138.984 9.86328 137.832 10.1719 136.746 10.5859C136.566 9.71875 136.098 9.1875 135.34 8.99219C135.199 10.4062 135.129 11.3789 135.129 11.9102C135.129 12.3008 135.242 12.6211 135.469 12.8711C135.695 13.1211 136.055 13.332 136.547 13.5039C137.055 13.6914 137.516 13.7852 137.93 13.7852C138.586 13.7852 139.207 13.4023 139.793 12.6367L139.84 12.6836C139.387 13.957 138.824 14.8867 138.152 15.4727C137.488 16.0586 136.496 16.3516 135.176 16.3516C134.191 16.3516 133.398 16.1523 132.797 15.7539C132.203 15.3555 131.805 14.8672 131.602 14.2891C131.391 13.7109 131.285 12.9453 131.285 11.9922C131.285 11.0078 131.324 9.78516 131.402 8.32422C132.309 7.48047 133.273 6.69531 134.297 5.96875Z" fill="#1D2939"/>
</svg>
